<svg xmlns="http://www.w3.org/2000/svg" version="1.1" xmlns:xlink="http://www.w3.org/1999/xlink" width="1000" height="1000"><style>
    #light-icon {
      display: inline;
    }
    #dark-icon {
      display: none;
    }

    @media (prefers-color-scheme: dark) {
      #light-icon {
        display: none;
      }
      #dark-icon {
        display: inline;
      }
    }
  </style><g id="light-icon"><svg xmlns="http://www.w3.org/2000/svg" version="1.1" xmlns:xlink="http://www.w3.org/1999/xlink" width="1000" height="1000"><g><g transform="matrix(3.058103975535168,0,0,3.058103975535168,0,29.05198776758408)"><svg xmlns="http://www.w3.org/2000/svg" version="1.1" xmlns:xlink="http://www.w3.org/1999/xlink" width="327" height="308"><svg width="327" height="308" viewBox="0 0 327 308" fill="none" xmlns="http://www.w3.org/2000/svg">
<path d="M289.998 287.67C285.578 285.61 283.998 284.16 280.148 281.15C265.488 269.53 237.428 226.27 210.548 168.54C204.908 156.44 198.548 144.46 187.548 136.39C159.158 115.58 124.198 123.97 102.058 133.13C108.598 10.0003 134.708 10.0002 134.708 10.0002H60.6379C84.7279 10.0002 89.1978 126.7 89.1978 126.7C89.5278 130.77 89.8378 134.76 90.1378 138.64C83.9379 141.85 80.2578 144.29 80.2578 144.29C-44.6822 249 8.81784 291.59 32.9978 303.13C43.5578 308.19 55.8178 309.13 70.4778 303.89C104.418 291.69 101.718 252.84 101.718 252.84C100.648 220.48 100.448 192.44 100.908 168.13C141.178 147.06 174.308 173.73 194.418 191.83C204.684 201.143 213.329 212.099 219.998 224.25C219.998 224.25 249.288 268.99 270.928 289.72C277.488 296.01 282.618 304.44 291.928 304.44H317.928C319.861 304.44 321.716 303.678 323.09 302.319C324.464 300.959 325.247 299.113 325.268 297.18L325.768 248.55C325.768 248.55 322.638 302.87 289.998 287.67ZM82.4778 278.58C63.7278 308.28 18.9878 290.58 15.7578 264.77C10.4478 222.18 92.4778 173.15 92.4778 173.15C95.6978 230 92.3678 262.93 82.4978 278.58H82.4778Z" fill="#306067" stroke="#306067" stroke-miterlimit="10"></path>
<path d="M203.305 5.94022C233.935 -12.4998 265.635 22.6402 256.475 47.0802C244.965 77.7402 186.475 88.9802 159.305 94.0802C151.305 95.5802 145.115 97.3302 131.105 105.08C131.105 105.08 131.175 104.85 131.315 104.47C132.545 101.03 140.636 89.3702 142.206 86.0602C165.506 36.8802 187.715 15.3402 203.305 5.94022Z" fill="#306067" stroke="#306067" stroke-miterlimit="10"></path>
<path d="M270.336 226.27C277.101 226.27 282.586 220.996 282.586 214.49C282.586 207.984 277.101 202.71 270.336 202.71C263.57 202.71 258.086 207.984 258.086 214.49C258.086 220.996 263.57 226.27 270.336 226.27Z" fill="#306067" stroke="#306067" stroke-miterlimit="10"></path>
<path d="M237.449 185.88C244.215 185.88 249.699 180.606 249.699 174.1C249.699 167.594 244.215 162.32 237.449 162.32C230.684 162.32 225.199 167.594 225.199 174.1C225.199 180.606 230.684 185.88 237.449 185.88Z" fill="#306067" stroke="#306067" stroke-miterlimit="10"></path>
</svg></svg></g></g></svg></g><g id="dark-icon"><svg xmlns="http://www.w3.org/2000/svg" version="1.1" xmlns:xlink="http://www.w3.org/1999/xlink" width="1000" height="1000"><g><g transform="matrix(3.058103975535168,0,0,3.058103975535168,0,29.05198776758408)"><svg xmlns="http://www.w3.org/2000/svg" version="1.1" xmlns:xlink="http://www.w3.org/1999/xlink" width="327" height="308"><svg width="327" height="308" viewBox="0 0 327 308" fill="none" xmlns="http://www.w3.org/2000/svg">
<path d="M289.998 287.67C285.578 285.61 283.998 284.16 280.148 281.15C265.488 269.53 237.428 226.27 210.548 168.54C204.908 156.44 198.548 144.46 187.548 136.39C159.158 115.58 124.198 123.97 102.058 133.13C108.598 10.0003 134.708 10.0002 134.708 10.0002H60.6379C84.7279 10.0002 89.1978 126.7 89.1978 126.7C89.5278 130.77 89.8378 134.76 90.1378 138.64C83.9379 141.85 80.2578 144.29 80.2578 144.29C-44.6822 249 8.81784 291.59 32.9978 303.13C43.5578 308.19 55.8178 309.13 70.4778 303.89C104.418 291.69 101.718 252.84 101.718 252.84C100.648 220.48 100.448 192.44 100.908 168.13C141.178 147.06 174.308 173.73 194.418 191.83C204.684 201.143 213.329 212.099 219.998 224.25C219.998 224.25 249.288 268.99 270.928 289.72C277.488 296.01 282.618 304.44 291.928 304.44H317.928C319.861 304.44 321.716 303.678 323.09 302.319C324.464 300.959 325.247 299.113 325.268 297.18L325.768 248.55C325.768 248.55 322.638 302.87 289.998 287.67ZM82.4778 278.58C63.7278 308.28 18.9878 290.58 15.7578 264.77C10.4478 222.18 92.4778 173.15 92.4778 173.15C95.6978 230 92.3678 262.93 82.4978 278.58H82.4778Z" fill="white" stroke="white" stroke-miterlimit="10"></path>
<path d="M203.305 5.94022C233.935 -12.4998 265.635 22.6402 256.475 47.0802C244.965 77.7402 186.475 88.9802 159.305 94.0802C151.305 95.5802 145.115 97.3302 131.105 105.08C131.105 105.08 131.175 104.85 131.315 104.47C132.545 101.03 140.636 89.3702 142.206 86.0602C165.506 36.8802 187.715 15.3402 203.305 5.94022Z" fill="white" stroke="white" stroke-miterlimit="10"></path>
<path d="M270.336 226.27C277.101 226.27 282.586 220.996 282.586 214.49C282.586 207.984 277.101 202.71 270.336 202.71C263.57 202.71 258.086 207.984 258.086 214.49C258.086 220.996 263.57 226.27 270.336 226.27Z" fill="white" stroke="white" stroke-miterlimit="10"></path>
<path d="M237.449 185.88C244.215 185.88 249.699 180.606 249.699 174.1C249.699 167.594 244.215 162.32 237.449 162.32C230.684 162.32 225.199 167.594 225.199 174.1C225.199 180.606 230.684 185.88 237.449 185.88Z" fill="white" stroke="white" stroke-miterlimit="10"></path>
</svg></svg></g></g></svg></g></svg>